HIERARCHY
ROOT Hips
{
	OFFSET 0.000000 0.000000 0.000000
	CHANNELS 6 Xposition Yposition Zposition Zrotation Yrotation Xrotation 
	JOINT LeftUpLeg_virtual
	{
		OFFSET 0.000000 0.000000 0.000000
		CHANNELS 3 Zrotation Yrotation Xrotation
		JOINT LeftUpLeg
		{
			OFFSET 10.205400 -3.823500 0.155100
			CHANNELS 3 Zrotation Yrotation Xrotation
			JOINT LeftLeg
			{
				OFFSET 0.708757 -12.982077 0.567790
				CHANNELS 3 Zrotation Yrotation Xrotation
				JOINT LeftFoot
				{
					OFFSET -0.708756 -10.717838 -2.184338
					CHANNELS 3 Zrotation Yrotation Xrotation
					JOINT LeftToeBase
					{
						OFFSET 0.108149 -7.191104 7.560241
						CHANNELS 3 Zrotation Yrotation Xrotation
						End Site
						{
							OFFSET 0.000000 0.000000 0.000000
						}
					}
				}
			}
		}
	}
	JOINT RightUpLeg_virtual
	{
		OFFSET 0.000000 0.000000 0.000000
		CHANNELS 3 Zrotation Yrotation Xrotation
		JOINT RightUpLeg
		{
			OFFSET -10.205400 -3.823500 0.005500
			CHANNELS 3 Zrotation Yrotation Xrotation
			JOINT RightLeg
			{
				OFFSET -0.708756 -12.982134 0.610632
				CHANNELS 3 Zrotation Yrotation Xrotation
				JOINT RightFoot
				{
					OFFSET 0.708754 -10.717769 -1.945823
					CHANNELS 3 Zrotation Yrotation Xrotation
					JOINT RightToeBase
					{
						OFFSET -0.108140 -7.191069 7.372968
						CHANNELS 3 Zrotation Yrotation Xrotation
						End Site
						{
							OFFSET 0.000000 0.000000 0.000000
						}
					}
				}
			}
		}
	}
	JOINT Spine_virtual
	{
		OFFSET 0.000000 0.000000 0.000000
		CHANNELS 3 Zrotation Yrotation Xrotation
		JOINT Spine
		{
			OFFSET 0.000000 6.876099 0.125700
			CHANNELS 3 Zrotation Yrotation Xrotation
			JOINT Spine1
			{
				OFFSET 0.000000 8.022060 0.146608
				CHANNELS 3 Zrotation Yrotation Xrotation
				JOINT Spine2
				{
					OFFSET 0.000000 9.168068 0.167552
					CHANNELS 3 Zrotation Yrotation Xrotation
					JOINT Neck_virtual
					{
						OFFSET 0.000000 0.000000 0.000000
						CHANNELS 3 Zrotation Yrotation Xrotation
						JOINT Neck
						{
							OFFSET 0.000000 10.314075 0.188496
							CHANNELS 3 Zrotation Yrotation Xrotation
							JOINT Head
							{
								OFFSET 0.000000 7.643700 -2.377400
								CHANNELS 3 Zrotation Yrotation Xrotation
								End Site
								{
									OFFSET 0.000000 0.000000 0.000000
								}
							}
						}
					}
					JOINT LeftShoulder_virtual
					{
						OFFSET 0.000000 0.000000 0.000000
						CHANNELS 3 Zrotation Yrotation Xrotation
						JOINT LeftShoulder
						{
							OFFSET 4.392200 8.824978 0.174984
							CHANNELS 3 Zrotation Yrotation Xrotation
							JOINT LeftArm
							{
								OFFSET 8.771219 -2.981674 -0.026999
								CHANNELS 3 Zrotation Yrotation Xrotation
								JOINT LeftForeArm
								{
									OFFSET 8.512804 0.000000 -0.000000
									CHANNELS 3 Zrotation Yrotation Xrotation
									JOINT LeftHand
									{
										OFFSET 18.484802 0.000000 -0.000000
										CHANNELS 3 Zrotation Yrotation Xrotation
										End Site
										{
											OFFSET 0.000000 0.000000 0.000000
										}
									}
								}
							}
						}
					}
					JOINT RightShoulder_virtual
					{
						OFFSET 0.000000 0.000000 0.000000
						CHANNELS 3 Zrotation Yrotation Xrotation
						JOINT RightShoulder
						{
							OFFSET -4.392200 8.824993 0.141379
							CHANNELS 3 Zrotation Yrotation Xrotation
							JOINT RightArm
							{
								OFFSET -8.771282 -2.981682 -0.094208
								CHANNELS 3 Zrotation Yrotation Xrotation
								JOINT RightForeArm
								{
									OFFSET -8.494598 0.000000 0.000000
									CHANNELS 3 Zrotation Yrotation Xrotation
									JOINT RightHand
									{
										OFFSET -18.483803 0.000000 0.000001
										CHANNELS 3 Zrotation Yrotation Xrotation
										End Site
										{
											OFFSET 0.000000 0.000000 0.000000
										}
									}
								}
							}
						}
					}
				}
			}
		}
	}
}
MOTION
Frames: 14
Frame Time: 0.033333
-4.255620 6.941257 -8.084662 179.470433 11.388841 179.796616 4.927988 -7.191668 -22.546620 -37.297600 -5.931224 -106.371058 32.054539 -14.533900 106.705170 -0.787220 -8.172875 7.365260 0.000000 0.000000 0.000000 3.933802 4.772779 -19.438648 4.064639 -3.189877 -73.651528 0.360413 -3.214283 22.970669 8.099793 10.823443 27.680597 0.000000 0.000000 0.000000 -2.537288 4.852409 -5.852301 1.697532 -1.713073 12.281965 -0.862929 -2.711131 14.956752 0.167147 -0.124810 -0.030528 -0.811540 -3.049273 19.141180 -10.717876 11.901037 -1.278288 0.000000 0.000000 0.000000 2.820820 -2.264490 13.144269 -3.971202 -8.856579 7.418558 19.144339 -40.452885 2.172715 -67.968039 -77.707609 74.313285 0.000000 0.000000 0.000000 -2.617871 -0.357233 13.237080 40.007031 26.284055 7.414443 15.631984 12.441574 -7.199465 7.835333 57.869037 3.450522 0.000000 0.000000 0.000000 
-4.233767 6.928375 -8.186201 179.309623 11.264975 179.789553 4.777220 -7.512240 -22.645233 -37.383497 -5.865859 -106.449024 32.069309 -14.863340 107.328206 -0.805962 -7.991355 6.812376 0.000000 0.000000 0.000000 3.925730 4.679580 -19.469922 3.225305 -3.132636 -74.221589 0.400863 -3.367952 24.377959 8.171309 11.011798 26.646270 0.000000 0.000000 0.000000 -2.763004 4.725352 -6.034347 1.619768 -1.677547 12.300757 -0.852599 -2.822878 14.988910 0.130576 -0.221664 -0.036004 -0.780446 -2.997000 19.222739 -10.669891 11.926595 -1.230105 0.000000 0.000000 0.000000 2.883625 -2.157864 13.162214 -4.097436 -8.799904 7.518706 19.212318 -40.436147 2.056167 -68.855192 -77.607191 75.227697 0.000000 0.000000 0.000000 -2.627598 -0.260500 13.308268 40.274057 26.328964 7.550222 15.563098 12.541191 -7.096392 8.001217 57.747678 3.671739 0.000000 0.000000 0.000000 
-4.210468 6.928483 -8.247705 179.683330 11.878057 179.944599 5.126005 -6.927400 -22.787359 -37.385225 -5.917017 -106.321231 32.005433 -15.134171 107.544976 -1.024127 -8.044219 6.452066 0.000000 0.000000 0.000000 3.730088 3.815420 -19.317665 2.910675 -4.396735 -74.236110 -0.973829 -4.565119 25.658873 2.679044 7.564878 25.578854 0.000000 0.000000 0.000000 -2.595042 4.836301 -6.202174 1.696853 -1.548063 12.311413 -0.824531 -2.648888 15.017590 0.073852 -0.112327 -0.019089 -0.740907 -2.821088 19.298676 -10.657341 12.025339 -1.210524 0.000000 0.000000 0.000000 2.846223 -2.077922 13.205146 -4.164774 -8.733886 7.517407 19.221882 -40.464943 1.948393 -69.923228 -77.534429 76.327951 0.000000 0.000000 0.000000 -2.614103 -0.132636 13.308463 40.334774 26.238062 7.644390 15.511319 12.754080 -7.028743 7.997427 57.714887 3.834133 0.000000 0.000000 0.000000 
-4.176615 6.954172 -8.236609 179.746646 11.962971 179.915488 5.232345 -6.693367 -22.925269 -37.397779 -5.920694 -106.089128 31.919796 -15.299376 107.543138 -1.255538 -8.245701 6.448652 0.000000 0.000000 0.000000 3.545402 3.582970 -19.695183 3.196486 -4.700756 -74.052815 -1.699642 -5.107494 26.493534 0.778361 6.334752 25.160767 0.000000 0.000000 0.000000 -2.576278 4.845798 -6.163630 1.642371 -1.636142 12.381549 -0.787618 -2.521137 15.020360 -0.014009 -0.013965 0.003991 -0.705037 -2.706035 19.205787 -10.793283 12.111903 -1.313943 0.000000 0.000000 0.000000 2.912210 -2.014466 13.131677 -4.264350 -8.712416 7.696728 19.527757 -40.431059 1.512379 -69.779760 -77.557959 76.214318 0.000000 0.000000 0.000000 -2.592266 -0.208341 13.347276 40.314505 26.438085 7.818121 15.469125 12.863784 -7.309715 7.976547 57.549828 3.693502 0.000000 0.000000 0.000000 
-4.147734 6.997606 -8.136373 179.797722 11.795432 179.966537 5.314670 -6.779659 -23.104076 -37.404315 -5.869672 -105.959785 31.661120 -15.417084 107.091260 -1.418684 -8.189244 7.011037 0.000000 0.000000 0.000000 3.638837 3.737987 -19.529130 2.740909 -3.997728 -74.375890 -0.335610 -3.969876 26.292058 5.361592 9.393125 23.676876 0.000000 0.000000 0.000000 -2.484383 4.971577 -6.080826 1.604265 -1.643115 12.480333 -0.702923 -2.450612 14.971911 0.059257 -0.114922 -0.015537 -0.702118 -2.791484 19.184640 -10.952243 12.084893 -1.481380 0.000000 0.000000 0.000000 2.928020 -2.109768 13.128639 -4.339187 -8.762127 7.724304 19.805812 -40.509247 0.997414 -69.059606 -77.479282 75.477340 0.000000 0.000000 0.000000 -2.572397 -0.236356 13.331987 40.185189 26.351403 7.728522 15.451353 13.009666 -7.514431 8.023797 57.343181 3.712495 0.000000 0.000000 0.000000 
-4.146119 7.033753 -8.016370 179.767874 11.697716 179.922209 5.312100 -6.910254 -23.277041 -37.398161 -5.818803 -105.875042 31.816616 -15.788530 106.543615 -1.461120 -8.862448 7.699400 0.000000 0.000000 0.000000 3.732165 3.752950 -19.500894 3.321032 -3.403699 -74.355106 0.161522 -3.739513 25.751727 7.078861 10.555932 23.066848 0.000000 0.000000 0.000000 -2.439489 4.886767 -5.999031 1.483810 -1.726463 12.708446 -0.719567 -2.536356 14.979404 0.028122 -0.060438 -0.093533 -0.659329 -2.867788 19.074683 -11.031858 12.168782 -1.655449 0.000000 0.000000 0.000000 2.991555 -2.010116 13.022365 -4.434629 -8.719329 7.784008 20.002299 -40.703146 0.531057 -68.410150 -77.517825 74.773646 0.000000 0.000000 0.000000 -2.464440 -0.175179 13.330125 39.989863 26.504505 7.809590 15.399734 13.080265 -7.695928 7.738824 57.012333 3.401714 0.000000 0.000000 0.000000 
-4.160543 7.041059 -7.930236 179.821956 11.668057 179.988421 5.427203 -7.081475 -23.422150 -37.218968 -5.838259 -105.867584 31.888558 -15.917348 106.094326 -1.515007 -9.103421 8.120468 0.000000 0.000000 0.000000 3.690362 3.708590 -19.889145 3.942309 -3.290360 -73.798534 -0.026366 -3.648570 25.059728 6.796507 10.322921 23.729274 0.000000 0.000000 0.000000 -2.303715 4.733776 -6.091248 1.408977 -1.761221 12.979784 -0.693309 -2.524511 14.939352 0.037812 -0.034388 -0.024335 -0.664287 -2.787242 18.950124 -11.227380 12.181911 -1.898057 0.000000 0.000000 0.000000 3.016725 -2.022017 12.978311 -4.366318 -8.776519 7.772473 20.225901 -40.801942 0.256464 -67.689572 -77.453034 73.981460 0.000000 0.000000 0.000000 -2.456751 -0.121701 13.234729 39.797221 26.586716 7.789688 15.390612 13.073524 -7.750717 7.696122 56.861851 3.273246 0.000000 0.000000 0.000000 
-4.193936 7.018536 -7.895697 179.881993 11.708805 -179.998584 5.512355 -7.189724 -23.481740 -37.107185 -5.896524 -105.897561 32.026064 -15.916663 105.845529 -1.431192 -9.238479 8.313576 0.000000 0.000000 0.000000 3.594843 3.613637 -20.381266 4.440502 -3.088506 -73.090018 -0.232024 -3.550833 24.544128 6.612228 10.254570 24.167637 0.000000 0.000000 0.000000 -2.256256 4.693456 -6.077376 1.365778 -1.703643 13.123601 -0.655608 -2.609277 14.883650 0.036597 -0.063777 0.005457 -0.646802 -2.745925 18.934830 -11.294952 12.237503 -1.932443 0.000000 0.000000 0.000000 3.022038 -2.017722 12.968401 -4.271737 -8.778733 7.680250 20.144622 -40.913267 0.399225 -67.188789 -77.469460 73.353718 0.000000 0.000000 0.000000 -2.447726 -0.081896 13.138377 39.656765 26.587365 7.683852 15.390662 13.073741 -7.571671 7.638845 56.762294 3.137781 0.000000 0.000000 0.000000 
-4.210667 6.983981 -7.896983 179.988066 11.813042 -179.879589 5.612137 -7.061254 -23.536156 -37.003216 -5.914591 -106.020013 32.073995 -15.664212 105.847189 -1.150094 -9.269796 8.452777 0.000000 0.000000 0.000000 3.366823 3.635835 -20.444027 4.778309 -2.911557 -72.893855 -0.502820 -3.393542 24.086290 6.356698 10.173564 24.302083 0.000000 0.000000 0.000000 -2.228388 4.724052 -6.133697 1.291801 -1.770306 13.170688 -0.624029 -2.502264 14.784424 0.050887 0.025233 0.071132 -0.599297 -2.776053 18.833473 -11.335174 12.251348 -1.953925 0.000000 0.000000 0.000000 3.049951 -2.011283 12.989509 -4.096559 -8.926053 7.739137 20.052872 -40.837493 0.678657 -66.754635 -77.546792 72.829419 0.000000 0.000000 0.000000 -2.440903 -0.128280 13.017551 39.591738 26.590002 7.681468 15.341681 12.966075 -7.349332 7.490034 56.723922 2.928760 0.000000 0.000000 0.000000 
-4.197472 6.961937 -7.911121 179.966441 11.890264 -179.940637 5.531798 -6.722733 -23.361235 -36.995515 -6.038663 -106.147546 32.384334 -15.581497 105.844313 -1.216104 -9.439932 8.743338 0.000000 0.000000 0.000000 3.080181 3.808715 -20.480978 5.041905 -2.742592 -72.641104 -0.822032 -3.282944 23.982391 6.021712 10.064281 24.062521 0.000000 0.000000 0.000000 -2.329516 4.910346 -6.098804 1.200439 -1.824787 13.195788 -0.617941 -2.541866 14.776926 0.027719 0.009328 0.001460 -0.582159 -2.773570 18.886520 -11.303743 12.265292 -1.821094 0.000000 0.000000 0.000000 3.058290 -2.113991 12.873112 -3.990343 -8.819188 7.790334 19.805421 -40.807658 1.149783 -66.823456 -77.695499 72.774785 0.000000 0.000000 0.000000 -2.424646 -0.183770 13.038232 39.561518 26.565008 7.601740 15.369988 12.909755 -7.078270 7.404601 56.662723 2.781762 0.000000 0.000000 0.000000 
-4.178369 6.960110 -7.920533 179.982096 11.902592 -179.950568 5.398739 -6.429021 -23.414553 -36.986273 -6.085343 -106.066062 32.444502 -15.477045 105.782637 -1.108766 -9.436962 8.950094 0.000000 0.000000 0.000000 2.827538 3.958342 -20.466857 5.309202 -2.600838 -72.459865 -1.097358 -3.058119 23.868977 5.708503 9.913443 23.769162 0.000000 0.000000 0.000000 -2.431321 5.083439 -6.125318 1.183095 -1.875719 13.189097 -0.583135 -2.569797 14.746874 0.032798 0.010317 -0.000612 -0.552294 -2.763308 18.838367 -11.236435 12.264563 -1.689599 0.000000 0.000000 0.000000 3.082043 -2.095637 12.830191 -3.858983 -8.891304 7.739947 19.620794 -40.839467 1.531256 -66.631740 -77.778520 72.500409 0.000000 0.000000 0.000000 -2.402920 -0.233156 13.011801 39.537779 26.449902 7.379284 15.472612 12.807201 -6.873016 7.500977 56.597731 2.838676 0.000000 0.000000 0.000000 
-4.153033 6.972289 -7.928210 179.968409 11.894775 -179.959256 5.309840 -6.391062 -23.472826 -36.911182 -6.077397 -106.034254 32.343336 -15.572295 105.867222 -1.128009 -9.427634 8.910515 0.000000 0.000000 0.000000 2.690255 3.950433 -20.538736 5.558551 -2.497640 -72.285750 -1.277699 -2.872788 23.870869 5.590582 9.898431 23.525425 0.000000 0.000000 0.000000 -2.526433 5.094429 -6.299967 1.203927 -1.896532 13.227965 -0.567547 -2.586933 14.720444 0.022819 -0.006693 0.010349 -0.542164 -2.774152 18.836195 -11.130335 12.263341 -1.553414 0.000000 0.000000 0.000000 3.075485 -2.109249 12.784497 -3.846060 -8.957987 7.722175 19.426252 -40.929229 1.840199 -66.436963 -77.909932 72.102810 0.000000 0.000000 0.000000 -2.403155 -0.256738 12.998466 39.496911 26.389317 7.249938 15.556826 12.728277 -6.821319 7.508052 56.526649 2.797398 0.000000 0.000000 0.000000 
-4.134732 6.990445 -7.937743 179.999295 11.882202 -179.846367 5.326367 -6.529867 -23.748933 -36.888745 -6.039136 -105.921979 32.143693 -15.768777 106.030224 -1.266908 -9.422231 8.685033 0.000000 0.000000 0.000000 2.635239 3.816093 -20.646774 5.766071 -2.353349 -72.056802 -1.293726 -2.784488 23.488005 5.584766 9.993473 23.713544 0.000000 0.000000 0.000000 -2.582163 4.951803 -6.604203 1.257890 -1.880221 13.278029 -0.575552 -2.561721 14.714821 0.009552 0.006130 0.002701 -0.557758 -2.662640 18.945145 -11.059974 12.248861 -1.425472 0.000000 0.000000 0.000000 3.030644 -2.075146 12.795818 -3.899236 -9.009599 7.675148 19.305426 -41.029103 1.914059 -66.519991 -77.919215 72.227434 0.000000 0.000000 0.000000 -2.431585 -0.183688 13.028148 39.487472 26.443880 7.232722 15.613941 12.707062 -6.787423 7.450859 56.541723 2.711144 0.000000 0.000000 0.000000 
-4.135208 7.001135 -7.957214 179.984473 11.828689 -179.848744 5.348352 -6.819500 -23.773520 -36.864621 -6.039859 -105.932675 31.919530 -16.076168 106.281719 -1.348286 -9.286386 8.339586 0.000000 0.000000 0.000000 2.689329 3.555429 -20.772526 5.929801 -2.368842 -71.862319 -1.239908 -2.955350 23.445027 5.616784 10.192731 23.754783 0.000000 0.000000 0.000000 -2.602323 4.770684 -6.824430 1.343018 -1.814473 13.356554 -0.583581 -2.537540 14.730053 0.014306 -0.003839 0.022710 -0.594607 -2.686919 18.944810 -10.970459 12.230551 -1.368650 0.000000 0.000000 0.000000 2.994508 -2.023509 12.756072 -4.000424 -9.033363 7.686411 19.209810 -41.019387 1.994915 -66.742054 -77.964041 72.400647 0.000000 0.000000 0.000000 -2.462608 -0.144915 12.999717 39.435067 26.493648 7.181308 15.672088 12.782060 -6.770471 7.578440 56.652867 2.831559 0.000000 0.000000 0.000000 
